<?xml version="1.0" encoding="utf-8"?>
<!-- Generator: Adobe Illustrator 16.0.0, SVG Export Plug-In . SVG Version: 6.00 Build 0)  -->
<!DOCTYPE svg PUBLIC "-//W3C//DTD SVG 1.1//EN" "http://www.w3.org/Graphics/SVG/1.1/DTD/svg11.dtd">
<svg version="1.1" id="Layer_1" xmlns="http://www.w3.org/2000/svg" xmlns:xlink="http://www.w3.org/1999/xlink" x="0px" y="0px"
	 width="737.3px" height="187.9px" viewBox="0 0 737.3 187.9" style="enable-background:new 0 0 737.3 187.9;" xml:space="preserve"
	>
<style type="text/css">
<![CDATA[
	.st0{fill-rule:evenodd;clip-rule:evenodd;fill:#F58F4A;}
	.st1{fill-rule:evenodd;clip-rule:evenodd;fill:#2F517D;}
]]>
</style>
<g>
	<path class="st0" d="M697,30.5c-8.8-0.2-17.6-0.6-26.4-1.2c-7.5-0.5-15-1.3-22.6-2c-5.8-0.6-11.5-1-17.3-1.5
		c-7-0.6-13.9-1.3-20.9-1.5c-9-0.4-18-0.5-27-0.2c-6.5,0.2-12.9,0.8-19.3,1.7c-12.6,1.8-24.9,4.9-36.8,9.5C514.8,40,503,44.8,491,49
		c-15.5,5.4-31.4,9.3-47.6,11.7c-9.2,1.4-18.4,2.6-27.7,3.4c-0.5,0-0.9,0.2-1.4,0.4c-9.3,4.2-19.1,6.8-29.2,8
		c-22,2.5-42.4-2.7-61.6-13.4c-7.4-4.1-14.2-9.1-21-14.1c-9.7-7.1-20.4-12.1-31.8-15.7c-8.6-2.7-17.3-4.5-26.2-5.4
		c-10.9-1.1-21.8-1.7-32.8-0.9c-6.2,0.4-12.4,0.6-18.5,1.3c-6.5,0.7-12.9,1.5-19.4,2.5c-9.3,1.4-18.6,3-27.9,4.5
		c-8.6,1.4-17.2,3-25.7,4.4c-7.1,1.2-14.2,2-21.3,2.8c-14.1,1.6-28.2,2.1-42.3,1.6c-13-0.5-26-1.9-38.5-5.7c-3.2-1-6.3-2.2-9.3-3.6
		c-1.5-0.7-2.9-1.7-4.3-2.7c-0.4-0.3-0.9-0.7-0.6-1.3c0.2-0.4,0.9-0.3,1.3-0.2c2.3,0.6,4.6,1.2,6.8,1.8c6.9,1.9,13.9,3.7,21,4.8
		c3.6,0.5,7.1,0.9,10.7,1c7.8,0.3,15.7,0.6,23.5,0c10.9-0.8,21.8-2.2,32.5-4.4c16.7-3.4,33-8.3,49.2-13.7
		c17-5.6,34.2-10.3,51.8-13.9c9.9-2,19.9-2.7,29.9-1.8c12.4,1.1,23.9,5.2,34.8,11.2c9.1,5,17.5,11,26,16.9
		c9.8,6.8,19.8,13.3,30.6,18.3c10.5,4.9,21.5,8.2,33.1,9.8c8,1.1,16,1.5,24,1.9c9.7,0.5,19.4,0.9,29.1,1.3c5.5,0.2,11-0.2,16.5-1.2
		c0.6-0.1,1.2-0.4,1.8-0.7c17.6-10.6,35.6-20.4,54.3-29.1c13.7-6.3,27.7-12.1,42.3-16c7.5-2,15.2-3.3,23-4.1
		c7.9-0.8,15.7-1,23.6-0.6c8.1,0.3,16.1,1,24.1,2c16,2.1,31.8,5.2,47.7,7.9c14.1,2.4,28.1,4.9,42.2,7c10,1.4,20.1,2.1,30.3,1.7
		c6.7-0.2,13.4-1.1,19.9-3c0.8-0.2,1.7-0.3,2.6-0.5c0.2,0,0.5-0.1,0.6,0.2c0.2,0.3-0.1,0.5-0.3,0.7c-1.4,1.3-3.1,1.8-4.8,2.4
		c-5.2,1.8-10.5,2.7-15.9,3.3C709.8,30.6,703.4,30.7,697,30.5z"/>
	<path class="st1" d="M417.2,159.8c0,8.4,0,16.7,0,25.1c0,1.7-0.1,1.8-1.8,1.8c-3,0-6,0-9,0c-6.2-0.1-9.9-3.8-9.9-10
		c0-13.1,0-26.2,0-39.2c0-5.5-2.2-9.8-7.3-12.4c-3.1-1.6-6.4-1.8-9.8-1.2c-0.7,0.1-1.4,0.3-2.1,0.5c-5.8,1.8-8.6,5.6-8.7,12
		c-0.1,3.4,0,6.8,0,10.2c0,12.9,0,25.8,0,38.6c0,1.3-0.4,1.5-1.5,1.5c-5.8-0.1-11.6-0.1-17.4,0c-1,0-1.3-0.3-1.2-1.2
		c0-0.6,0-1.1,0-1.7c0-15,0-30,0-45c0-1.8-0.1-3.7-0.4-5.5c-0.8-4.5-3.4-7.4-7.6-8.9c-3.6-1.3-7.2-1.4-10.8-0.2
		c-5.5,1.8-8.7,6.2-8.8,12c-0.1,7.5,0,15,0,22.4c0,8.9,0,17.8,0,26.8c0,1-0.3,1.2-1.3,1.2c-6.1,0-12.2,0-18.2,0
		c-0.9,0-1.1-0.2-1.1-1.1c0-15.7,0-31.4,0.1-47c0-4.5,0.7-8.9,2.1-13.2c2.4-7.2,7-12.4,13.8-15.8c9.7-4.8,19.8-5.9,30.3-2.8
		c4.5,1.3,8,4.1,11.3,7.2c0.7,0.6,1.1,0.6,1.7,0.1c3-2.5,6-5,9.7-6.5c5.7-2.3,11.6-2.6,17.6-2c12.1,1.3,20.9,7.7,26.9,18.1
		c2.1,3.7,3.2,7.7,3.3,11.9C417.2,143.6,417.1,151.7,417.2,159.8z"/>
	<path class="st1" d="M243.8,165.5c-6,0-11.9,0-17.9,0c-2,0-2.3,0.3-3,2.1c-2.1,5.8-4.2,11.6-6.2,17.5c-0.4,1.2-1,1.7-2.3,1.7
		c-6-0.1-12-0.1-18-0.1c-1.5,0-1.5,0-1-1.4c11-30.9,22-61.7,32.9-92.6c0.1-0.2,0.1-0.3,0.2-0.4c1.6-4.9,4.9-7.5,10.1-7.5
		c5.4-0.1,10.8-0.1,16.2-0.1c1.1,0,1.6,0.8,1.9,1.7c2,5.8,4.1,11.5,6.2,17.2c9.7,27,19.3,54,29,81c0.8,2.1,0.8,2.1-1.5,2.1
		c-5.8,0-11.5,0-17.3,0c-1.9,0-2-0.1-2.6-1.9c-2.1-5.9-4.1-11.7-6.2-17.6c-0.4-1.2-1.1-1.7-2.4-1.7
		C255.8,165.5,249.8,165.5,243.8,165.5C243.8,165.5,243.8,165.5,243.8,165.5z M243.8,110c-0.1,0-0.2,0-0.4,0
		c-4.4,12.4-8.9,24.9-13.4,37.4c9.1,0,18,0,27,0C252.7,134.9,248.3,122.5,243.8,110z"/>
	<path class="st1" d="M9.7,154.1c2.9,0,5.8,0,8.6,0c1,0,1.6,0.4,1.8,1.4c2.1,7.9,7.5,12.5,15.7,13.4c5.2,0.6,10.3,0.6,15.3-1.2
		c3.5-1.3,6.3-3.4,7.5-7.2c1.3-4.2,0.2-7.8-3.1-10.6c-2.7-2.3-5.9-3.6-9.3-4.6c-7.2-2.1-14.4-3.7-21.6-5.9
		c-3.5-1.1-6.8-2.5-10.1-4.1c-10-5.1-14.5-13.3-14.2-24.4c0.2-9.2,4.5-16.3,11.7-21.8c7.3-5.6,15.5-8.1,24.6-8.3
		c7.4-0.1,14.6,0.7,21.4,3.7c11.3,5,17.6,13.9,20,25.8c0.5,2.4,0.4,2.4-2,2.4c-3.7,0-7.4,0-11.2-0.2c-3.3-0.2-5.7-1.5-7.1-4.6
		c-1.6-3.7-4.4-6.3-8.1-7.7C43.5,97.8,37,96.9,30.4,99c-4.9,1.6-8.3,4.8-9.4,10.1c-0.7,3.7,0.7,7.2,4,9.1c4.4,2.7,9.3,4.2,14.2,5.7
		c7.1,2.1,14.3,4.1,21.3,6.5c3.9,1.3,7.5,3.3,10.7,6c6.9,5.8,9.2,13.4,8.7,22.2c-0.8,14.4-12.1,25.9-26.6,28.2
		c-8.3,1.3-16.6,1.6-24.8-0.5c-9-2.3-16.7-6.6-22.1-14.3c-3.4-4.9-5.4-10.3-6.3-16.1c0-0.3,0-0.6-0.1-1c-0.1-0.7,0.2-0.9,0.9-0.9
		C3.9,154,6.8,154,9.7,154.1C9.7,154,9.7,154,9.7,154.1z"/>
	<path class="st1" d="M737.3,156.5c0,9.6,0,19.1,0,28.7c0,1.8-0.1,1.9-1.9,1.9c-3,0-6,0-9,0c-2.4,0-4.5-0.6-5.9-2.7
		c-0.4-0.6-0.8-0.2-1.1-0.1c-2.6,0.9-5.1,2.1-7.9,2.5c-8.7,1.1-17.3,1.7-25.7-1.3c-3-1.1-5.9-2.5-8.4-4.6
		c-6.5-5.3-8.6-12.3-7.9-20.3c0.9-10.2,7.5-18,19.4-20.7c5.8-1.3,11.8-2.3,17.6-3.4c1.6-0.3,3.1-0.7,4.7-1c1.6-0.4,3-1.2,4.2-2.2
		c2.5-2.1,2.7-5.5,0.4-8c-2.1-2.3-5-3.1-7.9-3.7c-3.4-0.6-6.8-0.3-10.2,0.7c-2.7,0.8-4.9,2.4-6.1,5.1c-0.4,0.9-1,1.1-1.9,1.1
		c-5.7,0-11.4-0.1-17-0.1c-1,0-1.1-0.3-1-1.2c1.3-7.5,5.7-12.8,12-16.7c5.4-3.4,11.3-5,17.7-5.4c8-0.4,15.7,0.7,23,4.2
		c8.1,3.9,12.4,10.5,12.6,19.5C737.4,138,737.3,147.3,737.3,156.5z M717.9,146.7c-3.2,2.3-6.6,3-10.1,3.6c-4.2,0.8-8.4,1.5-12.5,2.6
		c-2.2,0.6-4.2,1.6-5.4,3.7c-2.9,5.3-1.6,11.7,4.6,14.3c5.4,2.2,10.8,1.8,16.1-0.1c4.1-1.5,6.4-4.6,6.9-8.9
		C718.2,157,717.8,152,717.9,146.7z"/>
	<path class="st1" d="M470.8,151.6c-9,0-17.9,0-26.9,0c-1.1,0-1.2,0.3-1,1.3c0.5,2.4,0.9,4.7,1.9,6.9c3.4,7.2,9.2,10.8,17.1,11.2
		c1.9,0.1,3.8,0,5.7-0.3c3.1-0.5,5.9-1.7,8-4c3.1-3.5,6.8-4.7,11.3-4.4c3.3,0.3,6.6,0.1,10,0c0.8,0,1,0.2,0.8,1
		c-4.4,13.4-13.4,21.6-27.6,23.8c-5.4,0.9-10.8,1.3-16.2,0.1c-14.1-3.2-23.1-12-27.2-25.9c-2-6.9-2.1-14-1.6-21.2
		c0.4-4.9,1.1-9.8,3.3-14.3c5.6-11.5,14.7-18.4,27.3-20.4c7.8-1.2,15.3-0.6,22.4,3c11.1,5.5,17.4,14.7,19.8,26.7
		c1,5.1,1.1,10.2,1,15.4c0,0.8-0.3,1.1-1.1,1C488.9,151.6,479.9,151.6,470.8,151.6z M461.2,138.1c5.6,0,11.3,0,16.9,0
		c0.9,0,1.2-0.2,1.2-1.1c0-3.1-0.9-5.9-2.8-8.2c-4.7-6.1-11.1-8.3-18.6-7.1c-7.5,1.2-13.7,7.8-14.6,15.2c-0.1,0.9,0,1.3,1.1,1.3
		C450,138.1,455.6,138.1,461.2,138.1z"/>
	<path class="st1" d="M88.5,132.4c0-8,0-16,0-24c0-1.1,0.2-1.5,1.5-1.5c5.8,0.1,11.7,0.1,17.5,0c1.3,0,1.6,0.4,1.6,1.6
		c0,12.2,0,24.5,0,36.7c0,3.7,0.1,7.4,0.2,11.2c0,1.8,0.4,3.6,1,5.3c1.4,3.8,4,6.2,8,7c3.2,0.7,6.3,0.6,9.3-0.5
		c5.8-2.1,9.2-6.7,9.2-12.8c0.1-12.3,0-24.6,0-37c0-1.3,0-2.6,0.3-3.9c0.8-4.4,4.1-7.3,8.6-7.5c3.4-0.2,6.9-0.1,10.3-0.1
		c0.5,0,0.8,0.1,0.8,0.7c0,0.2,0,0.5,0,0.7c0,15.7,0.2,31.4-0.2,47.2c-0.1,5.4-1.4,10.7-3.6,15.7c-3.4,7.5-9.1,12.4-17,14.7
		c-8.7,2.5-17.5,2.5-26.3,0c-10.5-3-16.9-10.1-19.8-20.4c-1.3-4.5-1.6-9.1-1.6-13.8c0-6.4,0-12.8,0-19.2
		C88.4,132.4,88.5,132.4,88.5,132.4z"/>
	<path class="st1" d="M652.4,128.2c-2.7,0-5.4,0-8.2,0c-1,0-1.7-0.3-2.3-1.2c-1.9-2.9-4.7-4.5-8-5.3c-4.5-1-9-0.9-13.3,0.7
		c-5.3,1.9-9,5.5-10.8,10.9c-2.7,8.2-2.9,16.4,0.3,24.6c3.8,9.6,10.9,13.2,20.5,12.7c4.9-0.2,8.9-2.1,12.2-5.7
		c1.8-1.9,3.9-2.8,6.6-2.7c4.3,0.1,8.6,0.1,13,0c1.1,0,1.1,0.3,0.8,1.2c-4.5,13.7-14,21.3-28,23.6c-7.9,1.3-15.6,0.7-23-2.4
		c-8.9-3.8-14.8-10.5-18.3-19.4c-5.9-14.9-5.4-29.4,2.9-43.3c6.1-10.2,15.3-15.7,27-17c8.2-0.9,16,0.2,23.3,4.3
		c7.2,4.1,12,10,14.6,17.8c0.3,0.8,0.2,1.1-0.8,1.1C658,128.2,655.2,128.2,652.4,128.2C652.4,128.2,652.4,128.2,652.4,128.2z"/>
	<path class="st1" d="M187.5,135.8c0,16.5,0,33,0,49.6c0,1.1-0.2,1.3-1.3,1.3c-6.1-0.1-12.2,0-18.4,0c-0.8,0-1.1-0.2-1.1-1
		c0-30.2,0-60.4,0-90.6c0-2,0.4-4,1.2-5.8c1.2-2.7,3.3-4.2,6.2-4.4c4.2-0.3,8.3-0.1,12.5-0.1c0.6,0,0.8,0.1,0.8,0.7
		c0,0.3,0,0.6,0,0.8C187.5,102.9,187.5,119.3,187.5,135.8z"/>
	<path class="st1" d="M507.3,159.6c0.1-4.5-0.4-12.1,0.1-19.6c0.6-9,3.7-17,10.7-23c5.2-4.5,11.4-7.1,18.1-8.6
		c4.5-1,9.1-1.5,13.7-1.5c0.9,0,1.2,0.1,1.2,1.2c-0.1,5.8,0,11.6,0,17.4c0,0.9-0.3,1.1-1.1,1.2c-3.4,0.4-6.7,0.9-10.1,1.5
		c-2.6,0.5-4.8,1.6-7,3.1c-3.7,2.5-5.1,6.2-5.1,10.5c0,14,0,28.1,0,42.1c0,0.6,0,1.2,0,1.8c0,0.6-0.2,0.8-0.8,0.8
		c-6.3,0-12.6,0-18.8,0c-1,0-0.9-0.5-0.9-1.1C507.3,177.7,507.3,170.1,507.3,159.6z"/>
	<path class="st1" d="M581.3,146.8c0,12.8,0,25.7,0,38.5c0,1.1-0.3,1.3-1.3,1.3c-6.1-0.1-12.2,0-18.2,0c-0.9,0-1.3-0.2-1.3-1.2
		c0-22.4,0-44.9,0.1-67.3c0-1.7,0.1-3.4,0.6-5c1-3.5,4-6,7.7-6.2c3.9-0.2,7.8,0,11.6-0.1c0.9,0,0.8,0.5,0.8,1.1c0,7.7,0,15.4,0,23
		C581.3,136.2,581.3,141.5,581.3,146.8z"/>
	<path class="st1" d="M571,99.9c-3.1,0-6.2,0-9.2,0c-0.7,0-1.1-0.1-1-1c0.1-2.2-0.2-4.4,0.2-6.6c0.7-4.3,4.6-7.7,8.9-7.8
		c3.5-0.1,7,0,10.5-0.1c0.8,0,1,0.2,1,1c0,4.5,0,9,0,13.4c0,0.8-0.2,1-1,1C577.2,99.9,574.1,99.9,571,99.9z"/>
	<path class="st1" d="M456.2,99.7c0.6-1,1.2-1.8,1.8-2.7c2.2-3.2,4.3-6.4,6.4-9.7c1.3-2,2.9-2.9,5.3-2.9c4.1,0.1,8.2,0,12.3,0
		c0.3,0,0.8-0.2,0.9,0.2c0.1,0.3-0.3,0.5-0.5,0.8c-4.1,4.2-8.3,8.3-12.5,12.5c-1,1-2.2,1.7-3.6,1.7C463,99.7,459.7,99.7,456.2,99.7z
		"/>
</g>
</svg>
